<svg width="1920" height="1080" viewBox="0 0 1920 1080" fill="none" xmlns="http://www.w3.org/2000/svg">
<path d="M1266.79 240H652.837C639.885 240 627.463 245.145 618.304 254.304C609.145 263.463 604 275.885 604 288.837V791.163C604 804.115 609.145 816.537 618.304 825.696C627.463 834.855 639.885 840 652.837 840H1266.79C1279.74 840 1292.17 834.855 1301.32 825.696C1310.48 816.537 1315.63 804.115 1315.63 791.163V288.837C1315.63 275.885 1310.48 263.463 1301.32 254.304C1292.17 245.145 1279.74 240 1266.79 240ZM652.837 281.86H1266.79C1268.64 281.86 1270.42 282.596 1271.72 283.904C1273.03 285.212 1273.77 286.987 1273.77 288.837V664.081L1170.97 561.279C1166.43 556.744 1161.05 553.146 1155.12 550.691C1149.2 548.237 1142.84 546.973 1136.43 546.973C1130.02 546.973 1123.67 548.237 1117.74 550.691C1111.81 553.146 1106.43 556.744 1101.9 561.279L1027.17 636L868.767 477.558C864.232 473.023 858.848 469.425 852.923 466.97C846.997 464.516 840.646 463.252 834.233 463.252C827.819 463.252 821.468 464.516 815.542 466.97C809.617 469.425 804.233 473.023 799.698 477.558L645.86 631.395V288.837C645.86 286.987 646.596 285.212 647.904 283.904C649.212 282.596 650.987 281.86 652.837 281.86ZM645.86 791.163V690.593L829.279 507.174C829.928 506.52 830.699 506.001 831.549 505.647C832.4 505.293 833.312 505.111 834.233 505.111C835.154 505.111 836.065 505.293 836.916 505.647C837.766 506.001 838.537 506.52 839.186 507.174L1130.15 798.14H652.837C650.987 798.14 649.212 797.404 647.904 796.096C646.596 794.788 645.86 793.013 645.86 791.163ZM1266.79 798.14H1189.35L1056.79 665.581L1131.48 590.86C1132.12 590.212 1132.89 589.697 1133.74 589.346C1134.59 588.995 1135.5 588.814 1136.41 588.814C1137.33 588.814 1138.24 588.995 1139.08 589.346C1139.93 589.697 1140.7 590.212 1141.35 590.86L1273.91 723.419V791.163C1273.91 792.091 1273.72 793.01 1273.36 793.865C1273 794.721 1272.48 795.496 1271.81 796.146C1271.15 796.796 1270.37 797.307 1269.5 797.649C1268.64 797.991 1267.72 798.158 1266.79 798.14ZM1022.6 442.326C1022.6 435.426 1024.65 428.682 1028.48 422.945C1032.32 417.209 1037.76 412.738 1044.14 410.097C1050.51 407.457 1057.53 406.766 1064.29 408.112C1071.06 409.458 1077.28 412.78 1082.15 417.659C1087.03 422.538 1090.36 428.753 1091.7 435.52C1093.05 442.287 1092.36 449.301 1089.72 455.675C1087.08 462.049 1082.61 467.497 1076.87 471.33C1071.13 475.163 1064.39 477.209 1057.49 477.209C1048.24 477.209 1039.36 473.534 1032.82 466.992C1026.28 460.45 1022.6 451.577 1022.6 442.326Z" fill="black"/>
</svg>
