<?xml version="1.0" standalone="no"?>
<!DOCTYPE svg PUBLIC "-//W3C//DTD SVG 20010904//EN"
 "http://www.w3.org/TR/2001/REC-SVG-20010904/DTD/svg10.dtd">
<svg version="1.0" xmlns="http://www.w3.org/2000/svg"
 width="330.000000pt" height="81.000000pt" viewBox="0 0 330.000000 81.000000"
 preserveAspectRatio="xMidYMid meet">

<g transform="translate(0.000000,81.000000) scale(0.100000,-0.100000)"
fill="#000000" stroke="none">
<path d="M0 405 c0 -263 3 -405 10 -405 7 0 10 142 10 405 0 263 -3 405 -10
405 -7 0 -10 -142 -10 -405z"/>
<path d="M3280 405 c0 -263 3 -405 10 -405 7 0 10 142 10 405 0 263 -3 405
-10 405 -7 0 -10 -142 -10 -405z"/>
<path d="M438 559 c-14 -8 -18 -23 -18 -65 0 -47 -3 -57 -20 -61 -11 -3 -20
-11 -20 -18 0 -7 9 -15 20 -18 17 -4 20 -14 20 -61 0 -48 3 -58 25 -72 23 -15
45 -12 45 7 0 5 -9 9 -19 9 -23 0 -31 19 -31 74 0 23 -5 47 -11 53 -8 8 -8 13
0 17 6 4 11 30 11 57 0 44 3 51 25 59 14 5 25 14 25 20 0 13 -30 12 -52 -1z"/>
<path d="M1110 430 c0 -118 2 -140 15 -140 8 0 15 5 15 10 0 7 6 7 19 0 33
-17 71 -11 96 15 20 19 25 34 25 75 0 41 -5 56 -25 75 -28 29 -70 32 -97 8
-17 -15 -18 -14 -18 40 0 44 -3 57 -15 57 -13 0 -15 -22 -15 -140z m128 18
c16 -16 16 -100 0 -116 -7 -7 -27 -12 -45 -12 -37 0 -53 21 -53 70 0 49 16 70
53 70 18 0 38 -5 45 -12z"/>
<path d="M1540 430 c0 -118 2 -140 15 -140 11 0 15 12 15 48 l1 47 42 -47 c60
-67 94 -66 38 1 -23 27 -41 52 -41 56 0 4 16 27 36 51 47 57 21 60 -30 4 -20
-22 -38 -40 -41 -40 -3 0 -5 36 -5 80 0 64 -3 80 -15 80 -13 0 -15 -22 -15
-140z"/>
<path d="M1860 514 c0 -55 0 -55 -22 -40 -52 37 -113 3 -125 -67 -14 -88 59
-148 125 -101 20 14 22 14 22 0 0 -9 7 -16 15 -16 13 0 15 22 15 140 0 118 -2
140 -15 140 -12 0 -15 -13 -15 -56z m-16 -76 c34 -49 8 -118 -44 -118 -33 0
-60 31 -60 70 0 63 71 96 104 48z"/>
<path d="M2890 556 c0 -9 8 -16 20 -16 18 0 20 -7 20 -55 0 -39 4 -56 16 -63
14 -8 14 -10 0 -21 -11 -9 -16 -30 -16 -63 0 -41 -3 -51 -20 -55 -11 -3 -20
-12 -20 -20 0 -10 6 -12 23 -8 35 11 40 21 45 85 4 51 7 60 23 60 25 0 24 20
-1 27 -16 4 -20 14 -20 47 0 22 -6 52 -13 66 -14 29 -57 40 -57 16z"/>
<path d="M770 510 c0 -13 -7 -20 -20 -20 -11 0 -20 -7 -20 -15 0 -8 9 -15 20
-15 18 0 20 -7 20 -74 0 -82 11 -100 56 -94 39 4 43 28 5 28 l-31 0 0 69 c0
68 1 70 27 73 39 4 42 28 4 28 -24 0 -31 4 -31 20 0 11 -7 20 -15 20 -8 0 -15
-9 -15 -20z"/>
<path d="M553 466 c-24 -21 -28 -32 -28 -76 0 -44 4 -55 28 -76 38 -32 90 -32
122 1 36 35 36 115 0 150 -32 33 -84 33 -122 1z m107 -25 c5 -11 10 -34 10
-51 0 -50 -16 -70 -55 -70 -24 0 -39 7 -49 22 -36 51 -8 118 49 118 24 0 38
-6 45 -19z"/>
<path d="M923 478 c-28 -13 -32 -44 -5 -33 31 14 80 17 87 6 10 -18 -12 -38
-50 -45 -42 -8 -65 -30 -65 -60 0 -46 55 -70 102 -45 14 8 23 8 31 0 16 -16
37 -14 37 4 0 8 -4 15 -10 15 -6 0 -10 28 -10 65 0 52 -4 69 -20 85 -22 22
-62 25 -97 8z m87 -106 c0 -32 -24 -54 -55 -50 -24 2 -30 8 -30 28 0 17 7 26
25 31 44 12 60 10 60 -9z"/>
<path d="M1355 465 c-20 -19 -25 -34 -25 -75 0 -41 5 -56 25 -75 30 -31 83
-33 116 -6 28 22 18 41 -11 23 -43 -26 -100 -9 -100 30 0 15 9 18 65 18 l65 0
0 35 c0 71 -83 102 -135 50z m103 -32 c3 -21 0 -23 -47 -23 -35 0 -51 4 -51
13 0 24 24 38 60 35 28 -2 36 -8 38 -25z"/>
<path d="M1975 465 c-20 -19 -25 -34 -25 -75 0 -41 5 -56 25 -75 30 -31 83
-33 116 -6 28 22 18 41 -11 23 -43 -26 -100 -9 -100 30 0 15 9 18 65 18 l65 0
0 35 c0 71 -83 102 -135 50z m103 -32 c3 -21 0 -23 -47 -23 -35 0 -51 4 -51
13 0 24 24 38 60 35 28 -2 36 -8 38 -25z"/>
<path d="M2175 395 c19 -54 35 -99 35 -101 0 -2 10 -4 23 -4 19 0 27 14 58
100 30 84 34 100 20 100 -11 0 -25 -25 -45 -85 -16 -47 -30 -84 -32 -82 -2 1
-16 38 -32 82 -18 50 -36 81 -46 83 -13 3 -10 -14 19 -93z"/>
<path d="M2446 378 c-9 -12 -16 -29 -16 -38 0 -26 30 -60 54 -60 23 0 46 17
46 34 0 6 -5 5 -12 -2 -34 -34 -78 1 -63 49 6 18 13 20 41 16 35 -6 47 6 18
17 -30 11 -53 6 -68 -16z"/>
<path d="M2566 378 c-9 -12 -16 -29 -16 -38 0 -27 30 -60 55 -60 32 0 55 25
55 60 0 56 -64 82 -94 38z m69 -38 c0 -30 -3 -35 -27 -38 -19 -2 -28 2 -33 17
-11 36 3 63 33 59 24 -3 27 -8 27 -38z"/>
<path d="M2690 338 c0 -69 18 -78 22 -10 3 40 6 47 26 50 20 3 22 0 22 -47 0
-28 5 -51 10 -51 6 0 10 15 10 34 0 47 9 66 31 66 19 0 24 -13 33 -75 2 -16 3
-3 2 30 l-1 60 -77 1 -78 0 0 -58z"/>
<path d="M2365 320 c-8 -14 3 -30 21 -30 8 0 14 9 14 20 0 21 -24 28 -35 10z"/>
</g>
</svg>
